<?xml version="1.0" encoding="UTF-8"?>
<svg id="Capa_1" data-name="Capa 1" xmlns="http://www.w3.org/2000/svg" viewBox="0 0 490 376">
  <defs>
    <style>
      .cls-1 {
        fill: #fff;
      }
    </style>
  </defs>
  <path class="cls-1" d="M490,0v376H0V0h490ZM62.69,222.2H23.73c-.71-.44-.69-1-.77-1.72-1.29-10.99.11-27.59.55-38.95.33-8.52,0-26.22,4.76-33.19,2.95-4.33,9.14-7.17,13.37-10.1,16.95-11.75,34.21-23.1,51.44-34.46,22.95-15.12,48.95-34.49,74.63-44.24,9.99-3.79,22.23-8.18,24.16,6.83,5.11-.17,10.06.16,14.69,2.53,1.27-.12-.32-4.74-.23-6.16.56-8.56,6.34-11.01,13.83-12.18,19.69-3.08,42.41-2.22,62.29-1.6,30.58.95,61.26,3.31,91.29,9.1,7.17,1.38,24.2,4.44,29.52,8.44,7.71,5.8,12.88,29.1,15.18,38.76,7.32,30.7,12.22,65.61,13.15,97.21.07,2.52.38,13.76-.28,15.24-.58,1.29-3.85,2.3-5.23,2.76-10.39,3.46-27.09,4.86-38.22,5.73-42.98,3.38-88.65,1.42-131.37-2.98-9.14-.94-22.84-1.28-31.32-4.14-2.89-.97-4.86-3.62-5.35-6.63-1.77-10.85-1.25-24.25-2.03-35.42-.36-5.13-1.47-10.2-1.06-15.41-.17-.65-.61-.71-1.18-.82-3.69-.68-8.67.83-12.48-.51-.4.02-.31,5.96-.28,6.77.37,9.62,1.17,19.33,1.54,28.92.28,7.29-.38,16.44.47,23.5.38,3.19,5.56,7.74,8,9.98,41.51,38.24,128.67,47.8,181.33,33.45,10.14-2.76,39.59-13.76,44.66-22.76,1.55-2.76.31-4.17.27-6.68-.57-37.35-2.88-73.92-9.63-110.72-1.26-6.88-2.74-13.75-4.3-20.57.27-.88,2.35-1.22,3.21-1.31,5.75-.59,21.82-.29,25.16,5.3,1.56,2.6-.54,2.18-1.39,3.48-1.88,2.89,1.4,25.45,1.94,30.41.46,4.23.47,15.54,2.82,18.6s12.95,2.39,15.68-.12c2.14-1.97,2.81-6.68,3-9.48.66-9.5-.67-34.54-3.79-43.19-5.97-16.57-27.69-19.28-42.96-19.02-2.25.04-4.84,1.2-7.23.28-.98-.59-3.18-9.17-3.9-11.08-4.47-11.71-9.79-19.97-21.39-25.56-4.56-2.2-12.57-3.75-16.12-5.85-4.45-2.63-8.64-8.57-14.27-11.7-13.38-7.44-52.19-10.72-68.44-11.97-15.1-1.17-49.4-3.95-62.66.27-4.73,1.51-12.97,6.92-16.37,7.6-3.15.64-8.02.22-11.37.62-31.05,3.69-50.32,19.26-74.64,36.74-27.72,19.93-55.03,40.55-82.5,60.83-6.2,4.58-19.78,12.5-23.65,18.3-5.86,8.8-5.66,32.66-6.28,43.65-1.14,20.15-2.75,42.34-.99,62.41.71,8.12,4.79,11.43,10.47,16.49,1.79,1.6,4.05,2.59,5.66,4.35,1.43,7.29.31,15.73,3.94,22.51,1.6,2.99,2.83,3.89,6.21,4.28s12.08-.01,15.3-.56c2.86-.48,5.04-2.83,6.01-5.48.53-1.44.56-5.38,2.08-5.4l53.4,22.43c1.45,12.82,3.07,36.97,14.34,45.21,8.77,6.41,29.54,4.85,36.91-3.48,4.75-5.36,5.51-11.78,8.83-17.67,6.42,2.01,13.02,5.74,19.53,7.33,12.13,2.95,26.96.05,39.32-.9,52.14-3.98,104.28-8.2,156.37-12.46,5.92-.48,12.01-.36,17.97-1.01,7.79-.85,13.79-.41,17.91-8.06,6.86-12.72,7.4-52.11,6.33-67.11-.1-1.42-.65-2.77-.52-4.22-.58-.7-4.7,3.61-5.24,3.99-52.94,36.23-150.2,26.58-204.38-3.41-23.35-12.92-39.87-33.71-53.99-55.88-.4-20.43-.11-40.92.4-61.28.08-3.05-.57-16.38.44-17.92l18.24-6.79c1.32.32.68,5.31.79,6.71.59,7.67,1.35,15.32,1.99,22.98.41,4.87-.71,15.01,4.54,17.41,4.09,1.88,17.04,2.3,20.56-.68,1.84-1.56,2.71-5.39,2.89-7.73,1.03-13.15.85-45.93-4.66-57.3-8.51-17.57-31.14-16.73-47.41-12.23-1.21.33-6.55,1.89-6.82,2.67-1.56,4.57,3.68,11.32,8.67,11.21,6.99-.15,13.01-1.91,20.36-.42,2.75.56,4,2.91,5.27,5.13-1.11,1.33-2.89,2.04-3.91,3.48-.56.8-.75,2.34-1.11,2.64-.46.39-3.84,1.01-4.86,1.38-4.67,1.7-11.77,3.85-15.94,6.03-.78.41-2.2,1.19-2.46,2.03-2.15,21-.54,42.19-.79,63.23-.01,1.25-.22,7.14-1.07,7.32-1.59-.39-2.6-2.92-3.13-4.35-3.23-8.79-5.77-20.71-7.97-29.98-2.86-12.05-7.95-47.27-15.42-54.99s-19.29-.52-26.82,4.04c-22.51,13.61-45.08,29.68-67.12,44.26-6.93,4.58-18.8,9.63-21.49,17.96-1.63,5.03-2.74,26.02-.76,30.43.93,2.08,2.61,2.84,4.82,2.6,8.7-.97,20.11-5.03,29.15-6.82,18.59-3.67,33.27-6.18,51.49,1.18,14.86,6,30.64,20.43,40.52,32.9,3.14,3.97,2.64,3.7-2.22,4.25l-71.7.48-1.24-36.45c-1.43,2-.63,5.27-.76,7.73-.05.98-.48,1.92-.51,2.98-1.01,28.87,1.03,58.26-.26,87.16-3.64,0-7.07-2.22-10.59-3.12-.41-.37-.98-3.41-1.06-4.19-1.21-12.18,1.63-26.44.46-38.91-.8-8.61.28-17.34-.55-25.92l.02-22.74-1.49,1.25v29.47s-1.25,2.74-1.25,2.74Z"/>
  <path d="M62.69,222.2l1.26-2.74v-29.47s1.49-1.25,1.49-1.25l-.02,22.74c.82,8.58-.26,17.32.55,25.92,1.17,12.47-1.68,26.73-.46,38.91.08.78.65,3.82,1.06,4.19,3.52.9,6.94,3.12,10.59,3.12,1.29-28.9-.75-58.3.26-87.16.04-1.06.46-2.01.51-2.98.14-2.46-.66-5.73.76-7.73l1.24,36.45,71.7-.48c4.85-.55,5.36-.28,2.22-4.25-9.87-12.47-25.65-26.9-40.52-32.9-18.22-7.36-32.9-4.85-51.49-1.18-9.04,1.79-20.45,5.85-29.15,6.82-2.2.25-3.88-.52-4.82-2.6-1.98-4.41-.86-25.4.76-30.43,2.69-8.33,14.57-13.38,21.49-17.96,22.04-14.58,44.61-30.65,67.12-44.26,7.53-4.55,19-12.11,26.82-4.04s12.56,42.93,15.42,54.99c2.2,9.28,4.74,21.19,7.97,29.98.52,1.43,1.54,3.97,3.13,4.35.85-.18,1.05-6.07,1.07-7.32.25-21.05-1.36-42.23.79-63.23.26-.85,1.69-1.63,2.46-2.03,4.18-2.19,11.28-4.33,15.94-6.03,1.02-.37,4.4-.99,4.86-1.38.36-.3.55-1.84,1.11-2.64,1.02-1.45,2.8-2.15,3.91-3.48-1.27-2.23-2.52-4.58-5.27-5.13-7.36-1.48-13.37.28-20.36.42-4.99.11-10.24-6.63-8.67-11.21.27-.78,5.61-2.33,6.82-2.67,16.27-4.5,38.9-5.33,47.41,12.23,5.51,11.37,5.69,44.15,4.66,57.3-.18,2.34-1.05,6.18-2.89,7.73-3.53,2.98-16.47,2.56-20.56.68-5.25-2.41-4.13-12.55-4.54-17.41-.64-7.66-1.39-15.31-1.99-22.98-.11-1.4.53-6.39-.79-6.71l-18.24,6.79c-1,1.54-.36,14.86-.44,17.92-.51,20.35-.8,40.85-.4,61.28,14.12,22.17,30.64,42.96,53.99,55.88,54.18,29.99,151.43,39.63,204.38,3.41.55-.38,4.66-4.69,5.24-3.99-.13,1.45.42,2.8.52,4.22,1.07,15,.52,54.39-6.33,67.11-4.12,7.65-10.12,7.21-17.91,8.06-5.96.65-12.06.52-17.97,1.01-52.09,4.26-104.23,8.48-156.37,12.46-12.35.94-27.18,3.85-39.32.9-6.51-1.58-13.11-5.32-19.53-7.33-3.33,5.89-4.09,12.31-8.83,17.67-7.37,8.32-28.14,9.89-36.91,3.48-11.27-8.24-12.89-32.39-14.34-45.21l-53.4-22.43c-1.52.01-1.55,3.96-2.08,5.4-.97,2.64-3.15,5-6.01,5.48-3.22.54-12.07.92-15.3.56s-4.61-1.29-6.21-4.28c-3.63-6.78-2.51-15.22-3.94-22.51-1.61-1.76-3.86-2.75-5.66-4.35-5.68-5.06-9.76-8.38-10.47-16.49-1.77-20.08-.16-42.26.99-62.41.62-10.99.42-34.85,6.28-43.65,3.87-5.81,17.44-13.72,23.65-18.3,27.47-20.28,54.78-40.9,82.5-60.83,24.32-17.48,43.58-33.05,74.64-36.74,3.35-.4,8.22.02,11.37-.62,3.4-.69,11.64-6.1,16.37-7.6,13.26-4.22,47.55-1.44,62.66-.27,16.25,1.26,55.06,4.54,68.44,11.97,5.63,3.13,9.82,9.07,14.27,11.7,3.55,2.1,11.56,3.65,16.12,5.85,11.59,5.59,16.92,13.84,21.39,25.56.73,1.91,2.92,10.48,3.9,11.08,2.38.92,4.98-.24,7.23-.28,15.27-.26,36.99,2.45,42.96,19.02,3.12,8.65,4.45,33.69,3.79,43.19-.19,2.8-.87,7.51-3,9.48-2.72,2.51-13.3,3.2-15.68.12s-2.36-14.37-2.82-18.6c-.54-4.96-3.82-27.52-1.94-30.41.85-1.31,2.94-.88,1.39-3.48-3.34-5.59-19.41-5.9-25.16-5.3-.86.09-2.95.43-3.21,1.31,1.56,6.82,3.04,13.68,4.3,20.57,6.75,36.8,9.05,73.37,9.63,110.72.04,2.51,1.29,3.92-.27,6.68-5.07,9-34.52,20-44.66,22.76-52.66,14.35-139.82,4.79-181.33-33.45-2.44-2.24-7.61-6.79-8-9.98-.85-7.06-.19-16.21-.47-23.5-.37-9.59-1.17-19.3-1.54-28.92-.03-.81-.13-6.75.28-6.77,3.81,1.33,8.79-.18,12.48.51.57.11,1.01.17,1.18.82-.41,5.21.71,10.28,1.06,15.41.78,11.17.26,24.57,2.03,35.42.49,3.01,2.46,5.66,5.35,6.63,8.48,2.86,22.18,3.2,31.32,4.14,42.72,4.41,88.39,6.37,131.37,2.98,11.13-.88,27.83-2.27,38.22-5.73,1.39-.46,4.65-1.47,5.23-2.76.66-1.48.35-12.72.28-15.24-.93-31.59-5.83-66.5-13.15-97.21-2.3-9.65-7.46-32.95-15.18-38.76-5.32-4-22.35-7.06-29.52-8.44-30.04-5.79-60.72-8.15-91.29-9.1-19.88-.62-42.6-1.48-62.29,1.6-7.49,1.17-13.27,3.62-13.83,12.18-.09,1.41,1.49,6.04.23,6.16-4.64-2.38-9.58-2.7-14.69-2.53-1.93-15-14.17-10.62-24.16-6.83-25.67,9.75-51.67,29.12-74.63,44.24-17.24,11.36-34.5,22.71-51.44,34.46-4.23,2.93-10.42,5.77-13.37,10.1-4.75,6.97-4.43,24.68-4.76,33.19-.43,11.36-1.83,27.97-.55,38.95.09.73.06,1.28.77,1.72h38.96ZM116.38,163.78c11.62-.7,23.71-1.27,33.81,5.42l1.11-.76c-1.53-9.74-2.55-19.58-4-29.33-1.48-9.96-2.95-21.4-5.28-31.17-1.46-6.12-4.17-15.05-12.37-13.54-1.67.31-11.21,5.87-11.66,7.32-1.78,5.71.45,13.89-1.13,19.85l-.48,42.22ZM92.54,116.48c-.24,1.01-.54,2.08-.63,3.12-1.25,14.51-.53,29.84-.99,44.45-.06,1.88-1.09,3.82-.3,5.75l1.04.49,18.86-4.63,1.26-1.24,1.97-58.84-1.13-.76-20.09,11.66ZM86.78,120.43c-.78.13-12.56,7.07-13.61,7.9-.48.38-.94.75-1.14,1.35-1,12.77-1.18,25.56-1.58,38.37-.05,1.61-1.55,8.15.29,8.68l16.11-5.27c.17-8.65.25-17.26.57-25.9.19-5.1.24-10.37.47-15.51.12-2.64,2.73-10.28-1.11-9.63ZM53.94,181.26c.84.82,10.36-2.9,12.16-3.08l.76-.73c.45-6.13.29-12.3.55-18.43.21-4.97.32-9.97.5-14.98.11-3.01,1.03-7.06,1.04-9.99,0-.77-.09-1.3-.8-1.72-1.04-.3-12.08,6.37-12.59,7.85-1.39,4.06-.38,11.79-.6,16.38-.2,4.29-.92,9.17-1.04,13.44-.1,3.74.12,7.52.02,11.26ZM50.38,182.69c1-.96.92-18.86,1.04-21.68.15-3.44.93-7.52,1.04-10.94.04-1.34.34-8.19-.77-8.25-3.9,1.22-6.58,3.71-9.63,6.34-1.02,4.07-.34,8.25-.62,12.37-.35,5.2-.74,10.25-1,15.48-.08,1.54-1.43,8.54-.43,9.18l10.36-2.5ZM38.96,150.8c-4.2-.28-6.97,3.68-7.85,7.38-1.49,6.28-3.33,21.44-.99,27.17,1.55,3.78,4.08,2.31,6.78.58l2.06-35.14ZM63.43,278.63l.03-53.71c-.64-.86-1.22-1.11-2.25-1.24-6.9-.9-17.14.19-24.52.05-2.56-.05-11.26-1.45-13.01-.07-.61.48-.63,1.08-.72,1.77-.81,6.16-.18,19.99.66,26.35.58,4.36,6.04,10.84,9.6,13.37.78.56,2.26,1.67,3.02.52.77-6.05.73-13.59,3.28-19.19.61-1.35,3.63-4.32,2.4-5.26-2.63-2.02-5.34,4.97-6.2,6.45-.83-4.16,2.78-14.05,8.01-9,4.27,4.12,4.64,16.56,5.23,22.23.43,4.07.95,8.14,1.26,12.23.82,2.01,12.59,6.12,13.22,5.51ZM79.92,224.95v59.42c0,.2,1.67,1.66,2.14,1.85l39.55,14.87c1.22-.24.62-3.68.77-4.74,1.6-11.8,2.6-28.99,12.23-37.21,1.94-1.66,5.61-2.01,1.01-4.5-2.64-1.43-4.17-.79-6.51,1.01-5.17,3.99-5.69,10.67-8.5,15.97-.86-8.99,4.96-26.34,16.75-23.23,9.49,2.5,14.12,25.67,15.38,34.05,1.25,8.3,1.12,17.95,2.62,25.84.54,2.81,1.79,5.18,4.33,6.66,1.27.74,10.45,4.31,11.11,3.62-.23-1.63.43-3.14.52-4.73,1.18-19.93-.4-40.53-.57-60.44-.03-3.44.93-7.25.58-11.02-.38-4.06-8.62-11.73-10.52-15.95-1-1.12-2.92-1.45-4.38-1.61-5.26-.58-13.55.46-19.36.38-13.71-.19-27.7-.77-41.42-1.04-4.07-.08-10.2-.45-14.03,0-.73.09-1.28.06-1.72.77ZM412.08,238.69c-6.14.08-12.2,1.69-18.3,2.43-40.07,4.87-85.75,4.36-125.75-.99-1.36-.18-2.63-.79-4.05-.94-.56-.06-4.77-.2-3.25.99,37.72,9.48,76.48,11.6,115.08,6.94,7.28-.88,12.67-2.27,19.67-3.8,4.67-1.02,10.87-1.59,15.22-3.26.58-.22,1.22-.74,1.38-1.36ZM176.72,248.28l-1.9.18c-.37,19.81.73,39.59.53,59.4-.03,3.08-.65,6.9-.57,9.96.03,1.1.2,2.22,1.07,2.97,9.82,3.61,19.5,8.32,29.47,11.49,14.62,4.64,33.82,1.38,49.18.28,5.17-.37,9.68-.03,14.98-1,.81-.15,1.65.18,2.24-.75-5.16-.98-10.49-.83-15.75-.77-12.44.14-30.35,1.96-42.31-1.1-2.08-.53-6.63-1.88-6.9-4.09-1.16-9.66,1.12-21.37-.21-31.25l-29.84-45.32ZM43.31,254.22c-2.92.74-3.71,9.48-3.87,12.16-.23,3.87.07,16.51,2.1,19.41.92,1.31,1.49,1.8,2.89.56,2.87-2.54,2.79-17.87,2.54-21.96-.11-1.84-.63-10.94-3.67-10.16ZM436.06,271.89c.26-2.88-.19-6.07,0-8.99-.36-.46-.52-.65-1.14-.66-.89-.02-11.29,4.72-12.95,5.55-9.12,4.55-15.24,8.8-18.39,19.06-2.04,6.66-1.07,6.18,5.11,5.11,3.43-.59,7.62-1.58,10.99-2.49,4.4-1.19,11.71-2.79,13.83-7.15,1-2.06,2.34-8.12,2.55-10.43ZM219.78,266.4c-.41,2.4,0,6.8,0,9.49,0,4.04,3.78,11.85,7.04,14.44,7.84,6.22,31,6.46,41.18,6.76,5.95.18,7.67,2.36,5.1-5.6-3.47-10.77-12.47-15.08-22.38-18.57-9.66-3.41-20.38-5.79-30.37-7.7-.06.41-.53.91-.57,1.18ZM397.6,274.64c-6.46.38-12.86,2.14-19.29,2.93-29.58,3.63-64.57,2.28-94.32.04-.84-.06-3.01-.44-2.78.78.19.99,2.26,3.86,3.21,4.29,28.69,3.91,59.12,4.21,87.96.94,5.64-.64,12.87-1.5,18.36-2.61,3.79-.77,7.09-1.79,6.87-6.37ZM138.24,277.75c-2.8.73-4.9,6.18-5.73,8.77-3.59,11.19-3.13,33.61,1.85,44.3,2.46,5.29,5.72,8.61,9.91,2.41,5.98-8.84,5.34-33.02,2.93-43.21-.93-3.93-3.59-13.67-8.97-12.26ZM288.86,287.96c1.52,1.7,7.3,4.29,9.63,4.6,24.25,3.19,61.34,2.38,85.13-3.17,3.35-.78,6.64-1.12,8.69-4.29,3.55-5.49-5.68-1.43-7.58-1.09-23.39,4.18-50.08,4.81-73.83,3.63-2.88-.14-21.87-2.29-22.7-1.52-.08.67.22,1.36.66,1.84ZM318.67,331.56c.92.18,1.74.55,2.72.52,9.97-.29,20.05-1.8,30-2.51,4.32-.31,9.15,0,13.49-.49,1.12-.13,1.98-.38,2.74-1.26v-15.48c0-1.56-4.72-1.31-5.77-1.27-8.85.34-18.09,1.44-26.96,2.01-4.3.28-9.22,0-13.49.49-1.12.13-1.98.37-2.74,1.26v16.73ZM430.06,313.09c-1.62.43-2.88,1.63-4.5,2.23-9.22,3.42-21.37,3.64-31.08,5.38-1.39.25-4.08.69-4.87,1.87,12.07-.01,24.03-1.71,35.97-3.23,3.1-.54,4.73-3.21,4.48-6.25Z"/>
  <path class="cls-1" d="M79.92,224.95c.44-.71,1-.69,1.72-.77,3.83-.45,9.96-.08,14.03,0,13.71.27,27.71.85,41.42,1.04,5.81.08,14.1-.95,19.36-.38,1.46.16,3.38.48,4.38,1.61,1.9,4.22,10.14,11.88,10.52,15.95.36,3.77-.61,7.57-.58,11.02.17,19.91,1.74,40.51.57,60.44-.09,1.58-.75,3.1-.52,4.73-.66.69-9.84-2.88-11.11-3.62-2.54-1.48-3.79-3.85-4.33-6.66-1.51-7.89-1.37-17.54-2.62-25.84-1.26-8.38-5.9-31.56-15.38-34.05-11.79-3.1-17.61,14.24-16.75,23.23,2.8-5.31,3.32-11.99,8.5-15.97,2.34-1.8,3.86-2.44,6.51-1.01,4.6,2.49.93,2.84-1.01,4.5-9.63,8.22-10.63,25.41-12.23,37.21-.14,1.06.45,4.5-.77,4.74l-39.55-14.87c-.47-.19-2.14-1.65-2.14-1.85v-59.42Z"/>
  <path class="cls-1" d="M176.72,248.28l29.84,45.32c1.33,9.88-.95,21.6.21,31.25.27,2.22,4.81,3.56,6.9,4.09,11.96,3.06,29.87,1.24,42.31,1.1,5.27-.06,10.59-.22,15.75.77-.59.93-1.44.61-2.24.75-5.3.97-9.82.63-14.98,1-15.36,1.1-34.56,4.36-49.18-.28-9.97-3.17-19.64-7.88-29.47-11.49-.87-.75-1.04-1.87-1.07-2.97-.08-3.06.54-6.89.57-9.96.2-19.81-.9-39.59-.53-59.4l1.9-.18Z"/>
  <path class="cls-1" d="M116.38,163.78l.48-42.22c1.58-5.96-.66-14.13,1.13-19.85.45-1.44,9.98-7.01,11.66-7.32,8.19-1.5,10.91,7.42,12.37,13.54,2.33,9.77,3.8,21.21,5.28,31.17,1.45,9.75,2.47,19.59,4,29.33l-1.11.76c-10.1-6.69-22.19-6.12-33.81-5.42Z"/>
  <path class="cls-1" d="M63.43,278.63c-.63.61-12.4-3.49-13.22-5.51-.31-4.09-.83-8.16-1.26-12.23-.6-5.67-.96-18.12-5.23-22.23-5.23-5.04-8.84,4.85-8.01,9,.86-1.48,3.57-8.47,6.2-6.45,1.23.94-1.78,3.91-2.4,5.26-2.55,5.6-2.51,13.14-3.28,19.19-.75,1.15-2.23.03-3.02-.52-3.56-2.53-9.02-9.01-9.6-13.37-.85-6.36-1.47-20.19-.66-26.35.09-.7.12-1.29.72-1.77,1.75-1.38,10.46.02,13.01.07,7.38.14,17.62-.95,24.52-.05,1.03.14,1.61.39,2.25,1.24l-.03,53.71Z"/>
  <path class="cls-1" d="M92.54,116.48l20.09-11.66,1.13.76-1.97,58.84-1.26,1.24-18.86,4.63-1.04-.49c-.79-1.93.24-3.87.3-5.75.45-14.61-.26-29.94.99-44.45.09-1.05.39-2.11.63-3.12Z"/>
  <path class="cls-1" d="M219.78,266.4c.05-.27.51-.77.57-1.18,9.99,1.91,20.71,4.29,30.37,7.7,9.92,3.5,18.91,7.8,22.38,18.57,2.56,7.96.84,5.78-5.1,5.6-10.18-.31-33.34-.54-41.18-6.76-3.26-2.59-7.04-10.4-7.04-14.44,0-2.69-.41-7.09,0-9.49Z"/>
  <path class="cls-1" d="M318.67,331.56v-16.73c.76-.88,1.61-1.13,2.74-1.26,4.27-.48,9.19-.22,13.49-.49,8.87-.57,18.11-1.68,26.96-2.01,1.04-.04,5.77-.29,5.77,1.27v15.48c-.76.88-1.61,1.13-2.74,1.26-4.34.49-9.17.18-13.49.49-9.95.72-20.03,2.22-30,2.51-.98.03-1.8-.34-2.72-.52Z"/>
  <path class="cls-1" d="M138.24,277.75c5.38-1.41,8.04,8.33,8.97,12.26,2.41,10.19,3.04,34.38-2.93,43.21-4.2,6.21-7.45,2.88-9.91-2.41-4.98-10.7-5.44-33.11-1.85-44.3.83-2.58,2.93-8.04,5.73-8.77Z"/>
  <path class="cls-1" d="M86.78,120.43c3.84-.66,1.23,6.99,1.11,9.63-.23,5.14-.29,10.4-.47,15.51-.32,8.64-.4,17.24-.57,25.9l-16.11,5.27c-1.85-.54-.34-7.07-.29-8.68.4-12.8.58-25.6,1.58-38.37.2-.61.66-.98,1.14-1.35,1.05-.83,12.83-7.77,13.61-7.9Z"/>
  <path class="cls-1" d="M397.6,274.64c.22,4.57-3.08,5.6-6.87,6.37-5.49,1.11-12.72,1.97-18.36,2.61-28.83,3.27-59.27,2.96-87.96-.94-.95-.43-3.02-3.3-3.21-4.29-.23-1.22,1.93-.84,2.78-.78,29.75,2.24,64.74,3.59,94.32-.04,6.43-.79,12.84-2.55,19.29-2.93Z"/>
  <path class="cls-1" d="M436.06,271.89c-.21,2.32-1.55,8.37-2.55,10.43-2.11,4.36-9.42,5.96-13.83,7.15-3.38.91-7.56,1.9-10.99,2.49-6.18,1.07-7.16,1.54-5.11-5.11,3.15-10.26,9.27-14.51,18.39-19.06,1.66-.83,12.06-5.57,12.95-5.55.62.02.78.2,1.14.66-.19,2.92.26,6.11,0,8.99Z"/>
  <path class="cls-1" d="M288.86,287.96c-.43-.48-.74-1.17-.66-1.84.84-.77,19.82,1.37,22.7,1.52,23.75,1.17,50.43.55,73.83-3.63,1.9-.34,11.13-4.4,7.58,1.09-2.05,3.17-5.34,3.51-8.69,4.29-23.79,5.55-60.88,6.36-85.13,3.17-2.34-.31-8.11-2.9-9.63-4.6Z"/>
  <path class="cls-1" d="M412.08,238.69c-.15.63-.79,1.14-1.38,1.36-4.35,1.67-10.55,2.24-15.22,3.26-7,1.53-12.4,2.92-19.67,3.8-38.6,4.67-77.36,2.54-115.08-6.94-1.53-1.19,2.68-1.05,3.25-.99,1.43.15,2.69.76,4.05.94,40,5.35,85.68,5.85,125.75.99,6.09-.74,12.15-2.34,18.3-2.43Z"/>
  <path class="cls-1" d="M53.94,181.26c.1-3.74-.12-7.51-.02-11.26.12-4.27.84-9.15,1.04-13.44.21-4.59-.8-12.32.6-16.38.51-1.49,11.56-8.16,12.59-7.85.71.42.8.95.8,1.72-.02,2.93-.94,6.98-1.04,9.99-.18,5.01-.29,10.01-.5,14.98-.25,6.13-.1,12.3-.55,18.43l-.76.73c-1.8.18-11.32,3.9-12.16,3.08Z"/>
  <path class="cls-1" d="M50.38,182.69l-10.36,2.5c-1-.64.36-7.64.43-9.18.26-5.23.65-10.28,1-15.48.28-4.12-.41-8.3.62-12.37,3.06-2.63,5.73-5.12,9.63-6.34,1.11.06.81,6.91.77,8.25-.11,3.42-.89,7.5-1.04,10.94-.12,2.82-.05,20.72-1.04,21.68Z"/>
  <path class="cls-1" d="M38.96,150.8l-2.06,35.14c-2.7,1.73-5.23,3.2-6.78-.58-2.34-5.73-.51-20.89.99-27.17.88-3.7,3.66-7.66,7.85-7.38Z"/>
  <path class="cls-1" d="M43.31,254.22c3.04-.78,3.56,8.32,3.67,10.16.24,4.1.32,19.42-2.54,21.96-1.4,1.24-1.97.75-2.89-.56-2.03-2.9-2.33-15.54-2.1-19.41.16-2.68.95-11.41,3.87-12.16Z"/>
  <path class="cls-1" d="M430.06,313.09c.25,3.04-1.39,5.71-4.48,6.25-11.94,1.52-23.9,3.22-35.97,3.23.79-1.18,3.48-1.62,4.87-1.87,9.71-1.74,21.86-1.96,31.08-5.38,1.63-.6,2.89-1.8,4.5-2.23Z"/>
</svg>