<?xml version="1.0" encoding="UTF-8"?>
<svg id="Capa_2" data-name="Capa 2" xmlns="http://www.w3.org/2000/svg" viewBox="0 0 385 385">
  <defs>
    <style>
      .cls-1 {
        stroke: #616161;
      }

      .cls-1, .cls-2, .cls-3, .cls-4 {
        stroke-miterlimit: 10;
      }

      .cls-1, .cls-4 {
        fill: #00b7ff;
      }

      .cls-2 {
        stroke: #00b7ff;
      }

      .cls-2, .cls-3 {
        fill: #fff;
      }

      .cls-3 {
        stroke: #0280bf;
      }

      .cls-4 {
        stroke: #000;
      }
    </style>
  </defs>
  <path class="cls-2" d="M384.5.5v384H.5V.5h384ZM234.17,96.94c-.82-13.36,3.43-29.85-10.96-37.33-11.34-5.89-51.64-6.01-62.78.13-13.49,7.44-9.62,24.45-10.34,37.19l-20.46,11.29c-12.54-5.3-21.79-17.07-36.55-9.54-10.36,5.28-31.22,41.99-31.93,53.4-.48,7.57,3,14.21,9.01,18.66,3,2.22,17.58,8.65,17.96,11.29.21,1.44-.77,3.45-.82,5.19-.18,5.9.34,11.75.41,17.62-11.56,7.79-27.65,11.59-26.57,28.81.75,11.87,22.21,49.56,33.45,54.12,14.31,5.81,22.91-5.22,35.03-10.27l20.46,11.29c.78,13.63-3.44,30.25,11.44,37.6,11.41,5.63,50.34,5.62,61.69-.27,14.39-7.47,10.14-23.96,10.96-37.33l20.45-11.31c12.28,5.15,21.04,16.43,35.48,9.99,11.05-4.93,32.26-41.94,33-53.82,1.05-16.78-14.53-21.19-26.19-28.42-1.69-1.88-.03-4.38.04-6.72.18-5.89-.18-11.78-.44-17.63,11.62-7.64,27.67-11.69,26.6-28.8-.7-11.18-20.12-44.74-29.25-51.6-14.6-10.96-26.24,1.86-39.24,7.76l-20.45-11.31Z"/>
  <path class="cls-4" d="M234.17,96.94l20.45,11.31c13-5.9,24.64-18.72,39.24-7.76,9.13,6.85,28.54,40.42,29.25,51.6,1.07,17.11-14.98,21.16-26.6,28.8.26,5.85.63,11.74.44,17.63-.07,2.33-1.73,4.84-.04,6.72,11.66,7.23,27.25,11.64,26.19,28.42-.75,11.89-21.95,48.89-33,53.82-14.45,6.45-23.21-4.83-35.48-9.99l-20.45,11.31c-.82,13.36,3.43,29.85-10.96,37.33-11.34,5.89-50.27,5.9-61.69.27-14.88-7.35-10.65-23.96-11.44-37.6l-20.46-11.29c-12.12,5.05-20.72,16.08-35.03,10.27-11.25-4.57-32.71-42.26-33.45-54.12-1.08-17.22,15-21.02,26.57-28.81-.07-5.86-.6-11.72-.41-17.62.05-1.74,1.03-3.75.82-5.19-.38-2.64-14.96-9.07-17.96-11.29-6.01-4.45-9.49-11.09-9.01-18.66.72-11.41,21.57-48.11,31.93-53.4,14.76-7.53,24,4.25,36.55,9.54l20.46-11.29c.72-12.74-3.14-29.75,10.34-37.19,11.13-6.15,51.44-6.02,62.78-.13,14.39,7.47,10.14,23.96,10.96,37.33ZM184.49,67.34c-8.54.53-21.16-.07-22.3,10.63-.6,5.61,1.27,22.15-.38,25.82-.75,1.65-16.43,8.89-19.76,10.93-4.64,2.84-8.61,8.46-14.32,6.7-4.68-1.44-13.7-8.48-18.92-11.01-9.58-4.65-12.03.04-17.59,7.36-4.8,6.32-18.91,30.02-18.07,37.23.2,1.73,1.42,3.65,2.71,4.83,4.68,4.31,20.91,10.42,23.64,14.53,2.51,3.77.02,8.69-.16,12.9-.13,3.09-.19,6.68-.04,9.76.23,5.04,3.38,12.4-1.18,15.96-5.66,4.41-17.94,8.43-22.68,13.25s-.82,11.48,1.31,16.54c3.49,8.28,9.33,18.5,14.79,25.63,3.47,4.53,7.26,10.44,13.8,8.7,6.1-1.62,15.59-10.1,21.89-12.54s9.93,3.46,14.83,6.46c3.33,2.04,19.02,9.28,19.76,10.93,1.75,3.89-.35,20.58.45,26.5.48,3.54,2.28,6.55,5.75,7.73,9.51,3.23,38.74,3.23,48.25,0,3.8-1.29,5.41-4.61,5.82-8.41.6-5.63-1.27-22.12.38-25.81.66-1.46,16.55-8.96,19.76-10.93,4.64-2.84,8.61-8.46,14.32-6.7,4.68,1.44,13.7,8.48,18.92,11.01,3.97,1.93,6.25,3.45,10.61.63,6.14-3.97,18.14-25.46,21.22-32.67,2.37-5.55,6.41-12.39,1.12-17.38-4.73-4.46-20.83-10.3-23.64-14.53-2.42-3.64,0-9.92.2-14.36.15-3.29.12-7.21-.05-10.51-.23-4.63-3.41-10.14,1.23-13.76,5.66-4.42,17.94-8.43,22.68-13.25s.82-11.48-1.31-16.54c-2.98-7.08-15.77-30.05-21.9-33.49-2.2-1.23-4.26-1.48-6.69-.83-6.1,1.62-15.59,10.1-21.89,12.54-6.07,2.35-9.93-3.46-14.83-6.46-3.21-1.97-19.1-9.46-19.76-10.93-1.76-3.91.35-20.56-.45-26.49-.32-2.36-1.66-5.46-3.7-6.78-5.3-3.4-27.04-3.59-33.81-3.17Z"/>
  <path class="cls-2" d="M184.49,67.34c6.78-.42,28.52-.22,33.81,3.17,2.05,1.31,3.38,4.42,3.7,6.78.81,5.93-1.31,22.58.45,26.49.66,1.46,16.55,8.96,19.76,10.93,4.9,3,8.76,8.81,14.83,6.46,6.3-2.44,15.8-10.92,21.89-12.54,2.44-.65,4.5-.4,6.69.83,6.13,3.44,18.92,26.42,21.9,33.49,2.13,5.06,5.92,11.85,1.31,16.54s-17.02,8.84-22.68,13.25c-4.64,3.62-1.46,9.13-1.23,13.76.17,3.29.2,7.22.05,10.51-.2,4.44-2.62,10.72-.2,14.36,2.81,4.23,18.91,10.07,23.64,14.53,5.28,4.99,1.25,11.83-1.12,17.38-3.08,7.21-15.08,28.7-21.22,32.67-4.36,2.82-6.64,1.3-10.61-.63-5.23-2.54-14.24-9.57-18.92-11.01-5.71-1.76-9.69,3.86-14.32,6.7-3.21,1.97-19.1,9.46-19.76,10.93-1.66,3.69.22,20.19-.38,25.81-.41,3.8-2.02,7.12-5.82,8.41-9.52,3.23-38.75,3.23-48.25,0-3.47-1.18-5.27-4.19-5.75-7.73-.81-5.92,1.3-22.61-.45-26.5-.75-1.65-16.43-8.88-19.76-10.93-4.9-3-8.76-8.81-14.83-6.46s-15.8,10.92-21.89,12.54c-6.55,1.74-10.33-4.16-13.8-8.7-5.46-7.13-11.3-17.35-14.79-25.63-2.13-5.06-5.92-11.85-1.31-16.54s17.02-8.84,22.68-13.25c4.57-3.56,1.42-10.92,1.18-15.96-.14-3.08-.09-6.67.04-9.76.18-4.21,2.66-9.13.16-12.9-2.73-4.11-18.95-10.22-23.64-14.53-1.29-1.18-2.51-3.1-2.71-4.83-.84-7.21,13.27-30.9,18.07-37.23,5.56-7.32,8.01-12.01,17.59-7.36,5.23,2.54,14.24,9.57,18.92,11.01,5.71,1.76,9.69-3.86,14.32-6.7,3.33-2.04,19.02-9.28,19.76-10.93,1.65-3.66-.22-20.21.38-25.82,1.15-10.7,13.76-10.1,22.3-10.63ZM185.98,135.46c-39.58,4.05-63.43,47.89-45.15,83.63,20.35,39.79,75.57,41.95,99.8,4.71,26.36-40.52-7.2-93.2-54.66-88.34Z"/>
  <path class="cls-1" d="M185.98,135.46c47.46-4.86,81.02,47.82,54.66,88.34-24.23,37.24-79.45,35.08-99.8-4.71-18.28-35.74,5.57-79.58,45.15-83.63ZM160.2,225.55c42.67,41.74,106.7-23.01,64.04-65.16-42.78-42.27-107.11,23.02-64.04,65.16Z"/>
  <path class="cls-3" d="M160.2,225.55c-43.07-42.14,21.26-107.43,64.04-65.16,42.66,42.15-21.37,106.9-64.04,65.16Z"/>
</svg>