<?xml version="1.0" encoding="UTF-8"?>
<svg id="Capa_1" data-name="Capa 1" xmlns="http://www.w3.org/2000/svg" viewBox="0 0 949.49 403.03">
  <defs>
    <style>
      .cls-1 {
        fill: #fcfcfd;
      }
    </style>
  </defs>
  <g>
    <rect class="cls-1" x=".5" y=".5" width="948.49" height="80.82" rx="28.08" ry="28.08"/>
    <path d="M920.91,1c15.21,0,27.58,12.37,27.58,27.58v24.66c0,15.21-12.37,27.58-27.58,27.58H28.58c-15.21,0-27.58-12.37-27.58-27.58v-24.66C1,13.37,13.37,1,28.58,1h892.33M920.91,0H28.58C12.8,0,0,12.8,0,28.58v24.66c0,15.78,12.8,28.58,28.58,28.58h892.33c15.78,0,28.58-12.8,28.58-28.58v-24.66c0-15.78-12.8-28.58-28.58-28.58h0Z"/>
  </g>
  <g>
    <rect class="cls-1" x=".5" y="161.11" width="948.49" height="80.82" rx="28.08" ry="28.08"/>
    <path d="M920.91,161.61c15.21,0,27.58,12.37,27.58,27.58v24.66c0,15.21-12.37,27.58-27.58,27.58H28.58c-15.21,0-27.58-12.37-27.58-27.58v-24.66c0-15.21,12.37-27.58,27.58-27.58h892.33M920.91,160.61H28.58c-15.79,0-28.58,12.8-28.58,28.58v24.66c0,15.78,12.8,28.58,28.58,28.58h892.33c15.78,0,28.58-12.8,28.58-28.58v-24.66c0-15.78-12.8-28.58-28.58-28.58h0Z"/>
  </g>
  <g>
    <rect class="cls-1" x=".5" y="321.71" width="948.49" height="80.82" rx="28.08" ry="28.08"/>
    <path d="M920.91,322.21c15.21,0,27.58,12.37,27.58,27.58v24.66c0,15.21-12.37,27.58-27.58,27.58H28.58c-15.21,0-27.58-12.37-27.58-27.58v-24.66c0-15.21,12.37-27.58,27.58-27.58h892.33M920.91,321.21H28.58c-15.79,0-28.58,12.8-28.58,28.58v24.66c0,15.78,12.8,28.58,28.58,28.58h892.33c15.78,0,28.58-12.8,28.58-28.58v-24.66c0-15.78-12.8-28.58-28.58-28.58h0Z"/>
  </g>
</svg>