<?xml version="1.0" encoding="UTF-8"?>
<svg id="Capa_1" data-name="Capa 1" xmlns="http://www.w3.org/2000/svg" viewBox="0 0 1046.62 777.11">
  <path d="M102.9,464c.42-2.27,1.67-3.78,1.95-6.22,2.26-19.75-2.67-45.02-.08-64.39.34-2.57,1.53-4.06,3.88-5.23.2,19.36-.21,38.75-.03,58.12.38,39.88,3.65,79.96-.96,119.92-.06,4.85.59,29.08,3.54,31.32,8.13,2.1,15.67,7.28,24.34,6.64l1.92-220.81,1.92,1.43,1.91,79.22c40.47-.54,81.02.69,121.49.04,2.74-.04,5.08-1,7.59-1.05,14.88-.29,29.95,1,44.68-.93,1.84-1.91-11.87-17.8-13.91-20.17-58.88-68.27-113.84-85.04-202.28-65.93-18.88,4.08-41.55,12.86-60.08,14.8-8.96.94-15.02.9-17.27-9.09-3-13.33-1.27-51.65,2.7-65,5.77-19.4,30.33-29.29,45.95-39.49,53.83-35.16,108.15-76.48,163.95-107.73,55.03-30.82,63,.59,74.7,48.76,10.3,42.4,15.92,102.92,33.24,141.48.95,2.11,4.44,10.36,7.53,8.29.71-4.06,1.73-8.85,1.97-12.91,2.25-37.24-3.27-76.76-1.04-114.32l2.94-34.25c15.62-10.05,34.4-14.88,52.15-20.1,2.22-1.29,1.95-4.73,3.5-7.06,1.93-2.9,6.61-4.35,8.42-7.66-4.95-12.78-18.21-13.33-30.05-13.01-9.98.27-26.62,4.98-35.37.89-7.32-3.42-15.44-14.84-12.88-23.24,1.09-3.56,19.52-7.88,23.8-8.83,33.11-7.32,79-7.95,98.09,25.77,15.12,26.69,15.79,101.36,13.26,132.63-.6,7.46-2.63,18.09-9.87,21.81-8.41,4.32-38.2,4.02-46.12-1.31-10.18-6.85-7.47-29.87-8.33-40.63-1.29-16.3-3.65-32.66-4.78-48.98-.22-3.12.86-15.03-.94-16.37l-41.85,14.88c-1.28,1.12-2.34,11.4-2.38,13.94-.06,4.22,1.04,7.73,1.04,11.51.04,51.82-3.61,103.72-.96,155.52,26.59,42.23,58.42,83.62,99.49,112.67,115.68,81.8,360.64,106.58,482.14,28.42l20.23-14.8c2.62,9.16,1.49,18.14,1.89,27.4,1.39,32.32.43,69.48-5.04,101.44-2.5,14.58-7.27,39.22-21.49,46.67-15.59,8.17-54.06,6.45-72.78,7.86-116.48,8.77-232.98,18.53-349.44,27.84-34.8,2.78-70.58,11.3-104.66,0-6-1.99-31.83-14.27-35.37-13.53-8.74,15.62-10.86,34.87-26.62,45.59-19.8,13.46-61.01,16.31-80.05.55-24.56-20.34-26.16-72.57-30.85-101.84l-121.88-50.76c-3.28.08-3.56,8.87-4.51,11.72-3.84,11.46-12.14,13.5-23.22,14.22-7.1.46-21.04.79-27.8-.12-8.45-1.15-12.53-9.33-14.99-16.69-4.82-14.38-2.66-30.06-6.28-44.6-18.23-14.1-33.91-23.79-36.88-48.56-5.16-43.07.46-96.42,2.9-140.11,1.52-27.28-.68-81.28,15.88-103.16,10.56-13.95,36.85-27.98,51.58-38.66,61.29-44.47,121.2-90.87,182.75-135.01,65.34-46.85,107.6-82.61,191.86-88.46,23.66-1.64,39.1-18.78,64.4-22,43.47-5.52,98.79-.15,142.91,3.72,37.82,3.32,118.6,9.57,148.23,31.29,12.07,8.85,17.48,19.12,32.49,25.11,31.19,12.46,49.1,12.79,67.95,45.33,9.06,15.64,12.49,32.3,19.65,48.51,12.6.42,25.28-1.25,37.92-.48,28.58,1.75,64.44,12.24,75.83,41.29,8.48,21.63,12.19,81.8,9.02,104.99-1.92,14.06-5.66,20.35-20.54,21.7-10.88.99-23.11.63-24.98-12.43-1.28-28.82-8.34-59.29-9.13-87.83-.13-4.58-.74-12.75,1.93-16.39,2.2-3,6.07-1.49,2.78-7.53-6.86-12.59-47.83-14.56-60.42-11.71-1.35.3-4.11,1.34-4.37,2.9,9.38,41.51,16.73,83.58,21.59,125.92,6.59,57.37,7.67,114.13,9.68,171.76.38,10.74,4.75,13.37-4.72,23.04-16.37,16.7-64.04,35.5-86.9,42.7-120.99,38.1-332.56,15.11-427.71-75.37-7.99-7.6-15.43-14.32-16.34-25.9-1.21-15.28.56-32.48.07-48.07-.6-19.45-3.3-39.05-3.92-58.48-.24-7.51.26-15.1.04-22.6,10.57,1.95,21.09-1.7,31.58,1.07-1.07,12.43,2.2,24.61,2.98,36.87,1.59,25.11-.94,55.06,4.13,79.39,1.03,4.94,2.4,9.4,6.4,12.8,7.4,6.27,31.66,8.93,41.8,10.04,99.11,10.89,200.06,16.47,299.53,11.53,37.43-1.86,84.82-3.05,120.47-13.93,7.48-2.28,15.3-3.45,16.32-12.48,1.34-11.83-.53-24.74-.95-36.49-2.94-81.52-15.62-178.74-40.07-256.57-4.86-15.46-13.65-42.34-28.69-50.03-18.91-9.66-55.38-15.23-76.98-19.02-90.07-15.81-195.53-22.4-286.75-18.55-18.47.78-65.4.61-76.73,16.39-7.06,9.83-4.38,18.69-3.43,29.69-11.19-4.88-22.23-6.5-34.46-5.85-4.2-32.02-28.95-25.17-51.47-17.2-29.41,10.4-59.28,27.48-85.82,43.78-76.43,46.91-148.53,101.24-224.45,148.99-28.1,18.84-22.06,66.32-23.27,96.73-.96,24.06-3.76,48.82-2,72.96.22,3.02.68,7.87,2.44,10.04h89.76ZM224.82,330.56h40.8c4.99,0,17.99,3.79,23.06,5.74,2.57.99,12.69,6.76,13.44,6.77,1.23.02,1.83-.55,2.24-1.63-5.41-39.27-9.14-79.4-16.64-118.43-3.34-17.35-8.59-58.56-35.04-49.4-4.11,1.42-19.32,10.39-22.15,13.37-6.83,7.2-2.18,27.89-2.79,37.52-1.75,27.36-2.29,55.02-2.96,82.48-.19,7.84.22,15.73.04,23.56ZM214.95,197.28l-44.64,26.45c-.88,4.49-1.75,9.67-2.12,14.2-2.47,30.21.71,61.01-.93,91.23-.22,4.01-4.43,15.42.63,16.61,12.94-4.07,29.99-5.24,42.34-10.12,5.1-2.02,4.68-7.91,5.03-13.21,2.33-35.36,1.81-72.86,2.8-108.56.13-4.75,2.02-10.08.86-15.17l-1.43-1.51-2.54.08ZM157.49,348.67l2.01-92.55c.05-4.5,6.68-24.27-1.37-24.42-3.01-.06-33.56,18.49-34.64,22.01-2.61,28.92-1.94,57.93-3.27,86.97-.17,3.82-4.62,19.47,1.34,19.62l35.94-11.62ZM82.74,370.89l27.18-6.9,1.44-1.44c.53-2.16,1-4.28,1.17-6.51,1.85-24.21.15-50.35,1.9-74.9.26-3.64,4.35-20.25.34-21.54-2.6-.83-10.96,4.62-13.71,6.24-3.99,2.35-13.92,8.39-15.41,12.43-2.85,7.71-.55,30.43-1,40.28s-2.77,20.22-2.91,29.73c-.11,7.63,1.48,14.97,1,22.6ZM77.92,280.64c-2.14-1.52-21.52,12-23.01,15.86-2.42,6.28-.55,20.35-.94,27.86-.51,9.83-1.31,19.88-1.97,29.71-.57,8.46-2.78,16.88-1.91,25.45.84.84,22.18-4.38,23.33-4.98.67-.35,1.35-.48,1.5-1.38,2.15-14.58.36-29.37,1.09-44.03.8-16.07,5.22-32.44,1.9-48.49ZM48.18,301.76c-5.4-.76-10.24,2.08-13.44,6.25-8.64,11.26-12.35,59.21-6.91,72.18,3.37,8.04,10.57,6.05,15.37.59l4.98-79.02ZM103.86,593.6v-123.36c-2.68-2.6-8.21-3.13-11.96-3.4-16.98-1.22-34.71,1.68-51.92,1.04-5.59-.21-24.9-4.46-27.79.93-2.37,4.43-1.77,31.25-1.5,37.95.37,9.09,1.09,24.84,4.67,32.77,2.66,5.91,18.86,26.69,25.51,25.34,3.89-14.37,1.82-30.61,8.39-44.59,1.47-3.13,9.95-12.26,4.17-13.13-5.58-.84-10.4,9.98-11.98,14.45-1.6.26-1.02-2.31-.99-3.38.54-17.48,14.75-29.01,23.54-8.11s5.23,49.73,10.36,71.72c8.98,5.76,19.13,9.35,29.5,11.78ZM234.42,576.32c-.48-16.51,6.26-42.39,22.02-50.45,28.12-14.38,41.32,29.61,46.26,48.89,6.71,26.2,6.16,48.96,9.49,74.99,2.94,23,7.95,27.23,29.97,33.38,1.65.46,6.06,2.38,7.01.76,5.77-51.92-.4-104.01.4-156.09.17-11.21,3.62-15.68-3.01-26.67-5.8-9.61-15.28-17.34-20.45-27.55-4.94-4.65-20.17-3.96-26.94-3.86-45.48.68-90.71.43-136.32-.88-3.5-1.09-19.07-.76-20.69,1.31l.04,136.46,5.29,4.31,89.26,33.53c3.63-2.61,1.34-6.33,1.6-8.98,2.45-24.86,7.52-69.93,27.82-86.42,1.81-1.47,7.65-3.71,7.65-5.83-3.9-7.35-12.31-8.11-18.77-3.37-10.81,7.94-12.81,19.9-17.6,31.36-.58,1.38-1.65,4.62-3.04,5.11ZM900.65,502.41c-12.58-.92-24.76,3.07-37.1,4.65-92.59,11.86-194.19,10.84-286.77-.96-6.84-.87-12.19-3.09-19.35-2.74-1.24.06-4.06-.78-3.35,1.43,30.85,8.29,62.74,14.31,94.57,17.76,76.16,8.25,168.01,5.14,242.03-15.23,3.38-.93,8.27-1.58,9.96-4.91ZM579.05,711.69c-35.91-3.69-73.06,2.25-108.95-.01-7.84-.49-34.87-4.1-38.17-11.75-.47-1.08-.61-1.95-.74-3.1-2.63-22.37,3.98-47.29-.43-69.65l-68.28-103.49-4.11.91.81,102.16c.08,10.12,1.42,20.4,1.05,30.73-.23,6.27-4.35,28.14.22,31.85,29.64,9.87,58.01,27.27,89.51,30.97,28.23,3.32,56.41-1.67,84.48-3.82,13.48-1.03,29.44.29,42.3-2.87,1.63-.4,2.79.95,2.33-1.94ZM58.43,537.11c-.98.08-2.3,1.08-3,1.83-8,8.61-6.9,45.24-5.21,56.94.86,5.94,1.62,13.15,7.06,16.68,2.67-.93,4.13-2.53,5.34-5,5.09-10.42,5.55-55.53.5-65.86-.72-1.48-2.86-4.75-4.69-4.59ZM955.38,556.16c-2.01-.19-3.81,0-5.77.47-11.39,2.69-43.12,19.7-51.84,27.84-9.82,9.16-19.34,26.46-17.67,39.96,2.92,2.08,21.66-2.42,26.33-3.45,11.66-2.58,37.44-8.06,43.39-19.01,1.31-2.41,5.56-18.02,5.56-20.36v-25.44ZM460.98,565.28c-1.01,5.98,0,17.3,0,24,0,5.26,8.41,21.92,12.08,26.32,18.62,22.32,82.41,17.5,109.41,20.29l2.9-.94c-1.45-30.79-26.75-45.44-52.85-54.8-22.38-8.03-47.05-13.43-70.44-17.13-.12.79-1.01,1.76-1.1,2.27ZM868.01,584.01c-17,1.1-33.5,5.65-50.41,7.67-69.36,8.27-138.2,2.28-207.31-.99-5.22-.25-10.08-1.78-7.45,4.57,1.78,4.3,4.86,6.91,9.43,7.85,17.66,3.64,44.79,4.89,63.27,5.85,50.29,2.62,130.05,1.67,178.43-10.68,8.16-2.08,14.11-4.64,14.04-14.27ZM275.44,590.89c-1.91.4-3.22,1.93-4.57,3.17-20.43,18.78-17.96,106.19.05,126.72,11.41,13.01,20.49-5.84,23.49-15.82,7.61-25.29,7.89-84.86-7.01-107.22-2.52-3.78-7.03-7.87-11.96-6.85ZM617.46,609.93c-3.58,3.48,13.97,12.08,16.33,12.94,12.87,4.69,40.72,5.78,55.15,6.29,45.18,1.6,101.6-.63,145.49-11.07,9.34-2.22,20.1-3.62,23.03-14.46-.02-2.5-2.44-2.44-4.28-2.39-4.64.15-10.95,3.38-15.85,4.39-27.08,5.57-61.04,8.22-88.79,9.13-41.35,1.36-78.66-3.17-119.09-4.83-3.99-.16-8.01.09-11.99,0ZM798.9,668.48c0-4.04-72.42,3.49-78.25,3.83-10.77.63-23.95-2.47-33.11,3.37v38.88c2.82-.02,5.2,1.06,8.11.99,23.91-.5,48.14-5.29,72.06-6.74,9.98-.61,23.2,2.55,31.19-3.37v-36.96ZM941.93,672.33c-3.92.06-6.57,3.09-10.3,4.57-21.43,8.48-47.06,7.61-69.55,12.05-3.93.78-9.97,1.06-12.3,4.49,9.73.07,19.58-.22,29.27-.96,14.96-1.14,37.13-2.98,51.42-6.18,7.74-1.73,11.76-5.64,11.46-13.97Z"/>
</svg>