<?xml version="1.0" encoding="UTF-8"?>
<svg id="Capa_1" data-name="Capa 1" xmlns="http://www.w3.org/2000/svg" viewBox="0 0 374.23 374.23">
  <defs>
    <style>
      .cls-1 {
        fill: #0084c7;
      }

      .cls-2 {
        fill: #fff;
      }
    </style>
  </defs>
  <path class="cls-1" d="M.09,139.33C5.36,49.89,87.54-14.07,175.99,3.88c90.88,18.44,141.03,117.15,103.55,202.33l-13.25,24.31c5.07.7,9.65,3.33,13.51,6.55,25.98,29.5,60.56,56.02,85.7,85.71,16,18.91,5.73,48.28-18.98,51.45h-8.02c-5.54-1.72-11.3-3.19-15.7-7.28l-87.52-87.54c-2.56-3.67-4.85-7.9-5.46-12.42-.63-.59-10.14,6.11-11.65,6.94-88.65,48.96-197.36-2.13-215.68-100.9L.09,153.92c.21-4.83-.28-9.77,0-14.59ZM136.33,38.15C58.96,44.37,13.5,129.95,50.03,198.44c40.5,75.92,150.73,76.33,191.84.73,41.81-76.88-18.95-167.98-105.55-161.02Z"/>
  <path class="cls-2" d="M.09,139.33V0h374.14v374.23h-27.71c24.71-3.17,34.98-32.54,18.98-51.45-25.13-29.7-59.72-56.21-85.7-85.71-3.85-3.22-8.43-5.86-13.51-6.55l13.25-24.31c37.48-85.18-12.67-183.89-103.55-202.33C87.54-14.07,5.36,49.89.09,139.33Z"/>
  <path class="cls-2" d="M.09,153.92l2.4,19.12c18.32,98.77,127.03,149.86,215.68,100.9,1.51-.83,11.02-7.53,11.65-6.94.61,4.52,2.89,8.75,5.46,12.42l87.52,87.54c4.4,4.09,10.16,5.55,15.7,7.28H.09v-220.31Z"/>
  <path class="cls-2" d="M136.33,38.15c86.6-6.96,147.36,84.13,105.55,161.02-41.11,75.6-151.34,75.2-191.84-.73C13.5,129.95,58.96,44.37,136.33,38.15Z"/>
</svg>